<?xml version="1.0" encoding="iso-8859-1"?>
<!-- Generator: Adobe Illustrator 21.1.0, SVG Export Plug-In . SVG Version: 6.00 Build 0)  -->
<svg version="1.1" id="Layer_1" xmlns="http://www.w3.org/2000/svg" xmlns:xlink="http://www.w3.org/1999/xlink" x="0px" y="0px"
	 viewBox="0 0 100.353 100.352" style="enable-background:new 0 0 100.353 100.352;" xml:space="preserve">
<path d="M39.514,85.637c3.975,2.226,7.89,3.344,11.537,3.344c3.053-0.001,5.918-0.785,8.468-2.359l9.399-5.798
	c0.339-0.209,0.581-0.543,0.673-0.931c0.092-0.387,0.025-0.795-0.184-1.134L61.26,65.555c-0.209-0.338-0.544-0.58-0.931-0.672
	c-0.39-0.091-0.796-0.025-1.134,0.184l-9.47,5.845c-1.456,0.898-3.324,1.185-5.121,0.79c-1.797-0.396-3.331-1.438-4.209-2.862
	L27.524,47.981c-1.861-3.016-0.923-6.984,2.091-8.845c0,0,0.001,0,0.001-0.001l9.829-6.068c0.705-0.435,0.923-1.359,0.488-2.064
	l-8.148-13.201c-0.435-0.705-1.36-0.926-2.064-0.489L19.9,23.375C8.954,30.131,9.338,47.866,20.836,66.504
	C26.107,75.05,32.741,81.845,39.514,85.637z M21.477,25.927l8.544-5.273l6.573,10.648l-8.553,5.28
	c-0.002,0.001-0.003,0.002-0.004,0.003c-4.418,2.731-5.794,8.548-3.065,12.97l12.871,20.858c1.301,2.111,3.531,3.648,6.117,4.218
	c2.551,0.559,5.228,0.136,7.341-1.168l8.193-5.057l6.572,10.65l-8.123,5.011c-5.932,3.66-12.499,1.45-16.963-1.049
	c-6.335-3.548-12.583-9.972-17.591-18.09C12.819,47.794,12.033,31.756,21.477,25.927z"/>
<path d="M49.58,33.552c4.854,0.287,9.15,2.781,11.788,6.844c2.522,3.872,3.129,8.617,1.664,13.019
	c-0.262,0.786,0.163,1.636,0.949,1.896c0.157,0.053,0.316,0.077,0.474,0.077c0.629,0,1.214-0.397,1.423-1.026
	c1.756-5.274,1.028-10.962-1.995-15.602c-3.114-4.798-8.396-7.865-14.126-8.204c-0.835-0.035-1.537,0.582-1.586,1.409
	C48.122,32.793,48.753,33.503,49.58,33.552z"/>
<path d="M51.68,22.418c7.86,0.903,14.837,5.216,19.142,11.831c4.171,6.413,5.353,14.309,3.242,21.664
	c-0.229,0.797,0.231,1.627,1.027,1.855c0.139,0.04,0.277,0.059,0.415,0.059c0.651,0,1.252-0.429,1.44-1.086
	c2.351-8.191,1.035-16.986-3.61-24.128c-4.794-7.367-12.562-12.169-21.314-13.175c-0.807-0.095-1.566,0.496-1.661,1.319
	S50.856,22.323,51.68,22.418z"/>
<path d="M53.731,12.612C64.17,14.063,73.452,19.963,79.198,28.8c5.629,8.647,7.317,19.327,4.633,29.301
	c-0.216,0.8,0.259,1.623,1.059,1.838c0.13,0.035,0.262,0.052,0.391,0.052c0.661,0,1.268-0.44,1.447-1.11
	c2.906-10.796,1.078-22.357-5.015-31.717c-6.22-9.565-16.268-15.952-27.567-17.523c-0.817-0.109-1.579,0.458-1.692,1.279
	C52.339,11.74,52.911,12.498,53.731,12.612z"/>
</svg>
